<?xml version="1.0" encoding="utf-8"?>
<!-- Generator: Adobe Illustrator 19.0.0, SVG Export Plug-In . SVG Version: 6.00 Build 0)  -->
<svg version="1.1" id="Layer_1" xmlns="http://www.w3.org/2000/svg" xmlns:xlink="http://www.w3.org/1999/xlink" x="0px" y="0px"
	 viewBox="0 0 589.9 274.5" style="enable-background:new 0 0 589.9 274.5;" xml:space="preserve">
<style type="text/css">
	.st0{fill:#FFFFFF;}
</style>
<g id="XMLID_2572_">
	<polygon id="XMLID_2573_" class="st0" points="452.6,0 452.6,33.4 545.3,33.4 545.3,233.7 226.3,233.7 226.3,274.5 547.1,274.5 
		552.3,274.5 589.9,274.5 589.9,40.8 589.9,5.6 589.9,0 	"/>
	<polygon id="XMLID_2574_" class="st0" points="341.3,0 37.3,0 18.7,0 0,0 0,274.5 40.8,274.5 40.8,33.4 341.3,33.4 	"/>
	<g id="XMLID_2575_">
		<path id="XMLID_2576_" class="st0" d="M307.8,201.3c-3.2,2-6.1,3.7-8.7,5.1c-2.6,1.4-5.3,2.5-7.9,3.4c-2.6,0.9-5.4,1.5-8.2,1.9
			c-2.8,0.4-5.9,0.6-9.3,0.6c-8.4,0-16-1.2-22.7-3.5c-6.7-2.3-12.3-5.5-16.9-9.5c-4.6-4-8.1-8.8-10.5-14.3s-3.7-11.5-3.7-17.9
			c0-6.5,1.2-12.6,3.7-18.1c2.5-5.5,6.1-10.3,10.8-14.2c4.7-3.9,10.5-7,17.3-9.3c6.8-2.2,14.7-3.3,23.5-3.3c6.4,0,12.3,0.3,17.6,1
			c5.3,0.7,10.2,1.5,14.8,2.5v-4.4c0-3.5-0.7-6.6-2-9.2s-3.3-4.7-5.7-6.4s-5.4-2.9-8.8-3.7s-7.2-1.2-11.3-1.2
			c-8.5,0-16,0.8-22.5,2.5c-6.5,1.7-12.7,4.1-18.7,7.3l-13.1-26.4c9.3-6.4,18.9-11.2,29.1-14.6c10.1-3.4,20.8-5,32.2-5
			c8.8,0,16.9,1,24.4,2.9c7.5,2,13.9,5.1,19.3,9.5c5.4,4.4,9.5,10.1,12.6,17.2c3,7.1,4.6,15.7,4.6,25.9v51.3h18.9v37.3h-58.8V201.3z
			 M276.8,180.2c6.4,0,12.3-1,17.6-3.1c0.1,0,0.1,0,0.2-0.1c8.1-3.2,13.3-11.3,13.3-20v-5.5l-32.4,0c-1.5,0-3,0.1-4.4,0.4
			c-2.8,0.6-5.2,1.7-7.3,3.2c-1.6,1.2-2.9,2.6-3.8,4.4s-1.4,3.7-1.4,6c0,4.2,1.5,7.7,4.6,10.5C266,178.8,270.6,180.2,276.8,180.2z"
			/>
		<path id="XMLID_2579_" class="st0" d="M524.2,108.6c-3.7-9-8.7-16.8-15.2-23.5c-6.4-6.7-14.1-12-23-15.9c-8.9-3.9-18.6-5.9-29-5.9
			c-5.4,0-8.6,0.6-13.7,1.9c-5.2,1.3-12.9,3.1-12.9,5.4V37.1V0h-66.8v33.4h18.5v174.4h48.2v-3.1c0,2,7.3,3.5,12.5,4.6
			c5.2,1.1,9.5,1.6,15.2,1.6c10.6,0,19.8-1.9,28.7-5.8c8.9-3.9,16.3-9.1,22.7-15.8c6.4-6.7,11.3-14.5,14.9-23.5s5.3-18.6,5.3-28.7
			C529.7,127.1,527.8,117.6,524.2,108.6z M455.3,175.6c-21.3,0-38.5-17.3-38.5-38.5c0-21.3,17.3-38.5,38.5-38.5
			c21.3,0,38.5,17.3,38.5,38.5C493.8,158.4,476.6,175.6,455.3,175.6z"/>
		<path id="XMLID_2583_" class="st0" d="M163.2,70.5L163.2,70.5c-7.4-2.2-11.6-3.9-17-5.2c-5.4-1.3-12.2-2-18.7-2
			c-10.5,0.1-20.7,2-29.7,5.9c-9,3.8-16.9,9-23.4,15.6c-6.4,6.6-11.6,14.2-15.1,23c-3.6,8.8-5.4,18.1-5.4,28
			c0,10.5,1.8,20.3,5.6,29.3c3.7,9,8.9,16.8,15.6,23.3c6.7,6.6,14.6,11.7,23.7,15.4c9.2,3.7,19.2,5.6,30.1,5.6
			c5.3,0,12.2-0.6,17.3-1.9c5.1-1.3,9.6-3.4,17.1-6.3v0.7c0,6.6-2.7,12.1-4.4,16.5s-5,7.8-8,10.4s-7.1,4.4-11.2,5.5
			c-4.1,1.1-8.9,1.6-13.8,1.6c-9,0-17.3-1.2-24.6-3.5c-7.3-2.3-14.2-5.5-20.5-9.5l-17,30.2c8.2,5.7,17.5,10.3,27.9,13.6
			c10.5,3.4,21.9,5,34.2,5c10,0,19.5-1.4,28.6-4.2c9.1-2.8,17-7,23.9-12.7c6.8-5.7,13.9-12.8,18-21.5c4.1-8.7,7.7-18.9,7.7-30.8
			V70.5H163.2z M129.9,172.1c-19.9,0-36.1-16.2-36.1-36.1s16.2-36.1,36.1-36.1S166,116.1,166,136S149.8,172.1,129.9,172.1z"/>
	</g>
</g>
</svg>
